<mxfile host="app.diagrams.net" modified="2023-07-18T08:29:14.693Z" agent="Mozilla/5.0 (Windows NT 10.0; Win64; x64) AppleWebKit/537.36 (KHTML, like Gecko) Chrome/113.0.0.0 Safari/537.36 OPR/99.0.0.0" etag="LbRD5XofB4X-KOT5uG4r" version="21.3.7" type="device">
  <diagram id="C5RBs43oDa-KdzZeNtuy" name="Page-1">
    <mxGraphModel dx="20330" dy="13518" grid="1" gridSize="10" guides="1" tooltips="1" connect="1" arrows="1" fold="1" page="1" pageScale="1" pageWidth="827" pageHeight="1169" math="0" shadow="0">
      <root>
        <mxCell id="WIyWlLk6GJQsqaUBKTNV-0" />
        <mxCell id="WIyWlLk6GJQsqaUBKTNV-1" parent="WIyWlLk6GJQsqaUBKTNV-0" />
        <mxCell id="shjoMovq4jiA_BYdKFy2-19" value="" style="rounded=0;whiteSpace=wrap;html=1;" parent="WIyWlLk6GJQsqaUBKTNV-1" vertex="1">
          <mxGeometry x="120" y="5920" width="638" height="300" as="geometry" />
        </mxCell>
        <mxCell id="E4OWhF_YyT_Mtb8Zqq0i-0" value="Nach der Schule machst du dich auf den Weg sie zu besuchen" style="rounded=0;whiteSpace=wrap;html=1;" parent="WIyWlLk6GJQsqaUBKTNV-1" vertex="1">
          <mxGeometry x="338" y="720" width="120" height="60" as="geometry" />
        </mxCell>
        <mxCell id="E4OWhF_YyT_Mtb8Zqq0i-1" value="Auf dem Weg zu ihr nach hause fragst du dich ob du ihr was mitbringen sollst (LOVE O METER beeinflussen)" style="rounded=0;whiteSpace=wrap;html=1;" parent="WIyWlLk6GJQsqaUBKTNV-1" vertex="1">
          <mxGeometry x="338" y="820" width="120" height="100" as="geometry" />
        </mxCell>
        <mxCell id="E4OWhF_YyT_Mtb8Zqq0i-2" value="Nichts mitbringen" style="rounded=0;whiteSpace=wrap;html=1;" parent="WIyWlLk6GJQsqaUBKTNV-1" vertex="1">
          <mxGeometry x="218" y="970" width="120" height="60" as="geometry" />
        </mxCell>
        <mxCell id="E4OWhF_YyT_Mtb8Zqq0i-3" value="Blumen" style="rounded=0;whiteSpace=wrap;html=1;" parent="WIyWlLk6GJQsqaUBKTNV-1" vertex="1">
          <mxGeometry x="338" y="970" width="120" height="60" as="geometry" />
        </mxCell>
        <mxCell id="E4OWhF_YyT_Mtb8Zqq0i-4" value="Gewonner Klavierschlüsselnahänger" style="rounded=0;whiteSpace=wrap;html=1;" parent="WIyWlLk6GJQsqaUBKTNV-1" vertex="1">
          <mxGeometry x="458" y="970" width="150" height="60" as="geometry" />
        </mxCell>
        <mxCell id="E4OWhF_YyT_Mtb8Zqq0i-5" value="Als du&lt;br&gt;&amp;nbsp;dann endlich ankommst klingelst du. Eltern machen auf und sagen komm herein und zeigen dir ihr zimmer, du klopfst an und gehst dann zu ihr rein" style="rounded=0;whiteSpace=wrap;html=1;" parent="WIyWlLk6GJQsqaUBKTNV-1" vertex="1">
          <mxGeometry x="338" y="1080" width="120" height="140" as="geometry" />
        </mxCell>
        <mxCell id="E4OWhF_YyT_Mtb8Zqq0i-6" value="Du begrüßt sie und und frägst wie es ihr geht" style="rounded=0;whiteSpace=wrap;html=1;" parent="WIyWlLk6GJQsqaUBKTNV-1" vertex="1">
          <mxGeometry x="338" y="1260" width="120" height="60" as="geometry" />
        </mxCell>
        <mxCell id="E4OWhF_YyT_Mtb8Zqq0i-9" value="Sie antwortet dass es ihr den umständen entsprechen geht (Und lächelt)" style="rounded=0;whiteSpace=wrap;html=1;" parent="WIyWlLk6GJQsqaUBKTNV-1" vertex="1">
          <mxGeometry x="338" y="1350" width="120" height="60" as="geometry" />
        </mxCell>
        <mxCell id="E4OWhF_YyT_Mtb8Zqq0i-10" value="Du sagst das dir ihr Klavierspiel sehr gefallen hat und du sogar aus dem Klassenraum geflüchet bist" style="rounded=0;whiteSpace=wrap;html=1;" parent="WIyWlLk6GJQsqaUBKTNV-1" vertex="1">
          <mxGeometry x="338" y="1440" width="120" height="90" as="geometry" />
        </mxCell>
        <mxCell id="E4OWhF_YyT_Mtb8Zqq0i-12" value="Sie bedankt sich und sagt dass sie schon seit ihrem Kindesaltar klavier spielt und demnächst sogar bei einem Konzert mitspielt" style="rounded=0;whiteSpace=wrap;html=1;" parent="WIyWlLk6GJQsqaUBKTNV-1" vertex="1">
          <mxGeometry x="338" y="1560" width="120" height="110" as="geometry" />
        </mxCell>
        <mxCell id="E4OWhF_YyT_Mtb8Zqq0i-13" value="Wegen ihrem Unfall in der schule hat sie jetzt aber die Proben verpasst und sie frägt dich ob du mit ihr Proben kannst da ihr das Konzert sehr wichtig ist" style="rounded=0;whiteSpace=wrap;html=1;" parent="WIyWlLk6GJQsqaUBKTNV-1" vertex="1">
          <mxGeometry x="338" y="1700" width="120" height="120" as="geometry" />
        </mxCell>
        <mxCell id="E4OWhF_YyT_Mtb8Zqq0i-14" value="Du freust dich über das Angebot und sagst zu, danach erwähnst du noch das du ihr was mit gebracht hast und überreichst ihr das kleine geschenk" style="rounded=0;whiteSpace=wrap;html=1;" parent="WIyWlLk6GJQsqaUBKTNV-1" vertex="1">
          <mxGeometry x="338" y="1849" width="120" height="131" as="geometry" />
        </mxCell>
        <mxCell id="E4OWhF_YyT_Mtb8Zqq0i-15" value="Sara frägt ihn ob er mit ihr üben will" style="rounded=0;whiteSpace=wrap;html=1;" parent="WIyWlLk6GJQsqaUBKTNV-1" vertex="1">
          <mxGeometry x="338" y="2010" width="120" height="60" as="geometry" />
        </mxCell>
        <mxCell id="kbRFMsDw6Ko16cHBu1PE-0" value="&#xa;&lt;span style=&quot;color: rgb(0, 0, 0); font-family: Helvetica; font-size: 12px; font-style: normal; font-variant-ligatures: normal; font-variant-caps: normal; font-weight: 400; letter-spacing: normal; orphans: 2; text-align: center; text-indent: 0px; text-transform: none; widows: 2; word-spacing: 0px; -webkit-text-stroke-width: 0px; background-color: rgb(248, 249, 250); text-decoration-thickness: initial; text-decoration-style: initial; text-decoration-color: initial; float: none; display: inline !important;&quot;&gt;Es beginnt in einem Klassenraum&lt;/span&gt;&#xa;&#xa;" style="rounded=0;whiteSpace=wrap;html=1;" parent="WIyWlLk6GJQsqaUBKTNV-1" vertex="1">
          <mxGeometry x="263" y="-2300" width="120" height="60" as="geometry" />
        </mxCell>
        <mxCell id="kbRFMsDw6Ko16cHBu1PE-1" value="Man hört ein Klavier" style="rounded=0;whiteSpace=wrap;html=1;" parent="WIyWlLk6GJQsqaUBKTNV-1" vertex="1">
          <mxGeometry x="263" y="-2200" width="120" height="60" as="geometry" />
        </mxCell>
        <mxCell id="kbRFMsDw6Ko16cHBu1PE-2" value="Klavier nur zu hören oder dem Gesang folgen" style="rhombus;whiteSpace=wrap;html=1;" parent="WIyWlLk6GJQsqaUBKTNV-1" vertex="1">
          <mxGeometry x="205.5" y="-2110" width="235" height="130" as="geometry" />
        </mxCell>
        <mxCell id="kbRFMsDw6Ko16cHBu1PE-3" value="Nur zu hören = Ende" style="rounded=0;whiteSpace=wrap;html=1;" parent="WIyWlLk6GJQsqaUBKTNV-1" vertex="1">
          <mxGeometry x="143" y="-1960" width="120" height="60" as="geometry" />
        </mxCell>
        <mxCell id="kbRFMsDw6Ko16cHBu1PE-4" value="klavier folgen" style="rounded=0;whiteSpace=wrap;html=1;" parent="WIyWlLk6GJQsqaUBKTNV-1" vertex="1">
          <mxGeometry x="373" y="-1960" width="120" height="60" as="geometry" />
        </mxCell>
        <mxCell id="kbRFMsDw6Ko16cHBu1PE-5" value="man sagt man muss kurz aufs klo" style="rounded=0;whiteSpace=wrap;html=1;" parent="WIyWlLk6GJQsqaUBKTNV-1" vertex="1">
          <mxGeometry x="283" y="-1800" width="120" height="60" as="geometry" />
        </mxCell>
        <mxCell id="kbRFMsDw6Ko16cHBu1PE-6" value="Es geht mir net gut könnte ich zum schul arzt" style="rounded=0;whiteSpace=wrap;html=1;" parent="WIyWlLk6GJQsqaUBKTNV-1" vertex="1">
          <mxGeometry x="473" y="-1800" width="120" height="60" as="geometry" />
        </mxCell>
        <mxCell id="kbRFMsDw6Ko16cHBu1PE-7" value="Begibst dich auf die suche nach dem Klavier&amp;nbsp;" style="rounded=0;whiteSpace=wrap;html=1;" parent="WIyWlLk6GJQsqaUBKTNV-1" vertex="1">
          <mxGeometry x="373" y="-1650" width="120" height="60" as="geometry" />
        </mxCell>
        <mxCell id="kbRFMsDw6Ko16cHBu1PE-8" value="Kleines mini spiel man muss die richtung wählen in die man gehen soll je nachdem von wo das klavier spiel kommt" style="rounded=0;whiteSpace=wrap;html=1;" parent="WIyWlLk6GJQsqaUBKTNV-1" vertex="1">
          <mxGeometry x="373" y="-1560" width="120" height="130" as="geometry" />
        </mxCell>
        <mxCell id="kbRFMsDw6Ko16cHBu1PE-9" value="Wenn man dann den weg gefunden hat sieht man wie die Person klavier spielt&amp;nbsp;" style="rounded=0;whiteSpace=wrap;html=1;" parent="WIyWlLk6GJQsqaUBKTNV-1" vertex="1">
          <mxGeometry x="373" y="-1400" width="120" height="110" as="geometry" />
        </mxCell>
        <mxCell id="kbRFMsDw6Ko16cHBu1PE-10" value="Man hat aber nur begrenzt viele möglichkeiten den das klavier spiel geht auch net ewig wenn man mehr wie 3 versuche braucht ist = Ende" style="rounded=0;whiteSpace=wrap;html=1;" parent="WIyWlLk6GJQsqaUBKTNV-1" vertex="1">
          <mxGeometry x="563" y="-1555" width="120" height="125" as="geometry" />
        </mxCell>
        <mxCell id="kbRFMsDw6Ko16cHBu1PE-11" value="Dementsprechend hört man nur bisschen zu und geht dann" style="rounded=0;whiteSpace=wrap;html=1;" parent="WIyWlLk6GJQsqaUBKTNV-1" vertex="1">
          <mxGeometry x="253" y="-1050" width="120" height="60" as="geometry" />
        </mxCell>
        <mxCell id="kbRFMsDw6Ko16cHBu1PE-12" value="Nach Geige greifen und selber spielen&lt;br&gt;Nicht ansprechen und nur zuhören&lt;br&gt;" style="rhombus;whiteSpace=wrap;html=1;" parent="WIyWlLk6GJQsqaUBKTNV-1" vertex="1">
          <mxGeometry x="323" y="-1261" width="220" height="150" as="geometry" />
        </mxCell>
        <mxCell id="kbRFMsDw6Ko16cHBu1PE-13" value="Geht in den raum und spielt im takt vom klavier geige" style="rounded=0;whiteSpace=wrap;html=1;" parent="WIyWlLk6GJQsqaUBKTNV-1" vertex="1">
          <mxGeometry x="493" y="-1050" width="120" height="60" as="geometry" />
        </mxCell>
        <mxCell id="kbRFMsDw6Ko16cHBu1PE-14" value="Darauf folgend sieht man diese Person für 1 woche nicht und hört auch keine musik aus dem raum man beginnt den klang zu vermissen" style="rounded=0;whiteSpace=wrap;html=1;" parent="WIyWlLk6GJQsqaUBKTNV-1" vertex="1">
          <mxGeometry x="253" y="-940" width="120" height="140" as="geometry" />
        </mxCell>
        <mxCell id="kbRFMsDw6Ko16cHBu1PE-15" value="die person am klavier bricht zusammen und muss ins krankenhaus gebracht werden&amp;nbsp;" style="rounded=0;whiteSpace=wrap;html=1;" parent="WIyWlLk6GJQsqaUBKTNV-1" vertex="1">
          <mxGeometry x="493" y="-940" width="120" height="100" as="geometry" />
        </mxCell>
        <mxCell id="kbRFMsDw6Ko16cHBu1PE-16" style="edgeStyle=orthogonalEdgeStyle;rounded=0;orthogonalLoop=1;jettySize=auto;html=1;exitX=0.5;exitY=1;exitDx=0;exitDy=0;" parent="WIyWlLk6GJQsqaUBKTNV-1" source="kbRFMsDw6Ko16cHBu1PE-14" target="kbRFMsDw6Ko16cHBu1PE-14" edge="1">
          <mxGeometry relative="1" as="geometry" />
        </mxCell>
        <mxCell id="kbRFMsDw6Ko16cHBu1PE-17" value="Schlechtes ende folgt da man traurig ist das klavier nicht mehr zu hören&amp;nbsp;" style="rounded=0;whiteSpace=wrap;html=1;" parent="WIyWlLk6GJQsqaUBKTNV-1" vertex="1">
          <mxGeometry x="253" y="-750" width="120" height="60" as="geometry" />
        </mxCell>
        <mxCell id="kbRFMsDw6Ko16cHBu1PE-18" value="" style="endArrow=none;html=1;rounded=0;entryX=0.5;entryY=1;entryDx=0;entryDy=0;exitX=0.5;exitY=0;exitDx=0;exitDy=0;" parent="WIyWlLk6GJQsqaUBKTNV-1" source="kbRFMsDw6Ko16cHBu1PE-11" target="kbRFMsDw6Ko16cHBu1PE-12" edge="1">
          <mxGeometry width="50" height="50" relative="1" as="geometry">
            <mxPoint x="333" y="-820" as="sourcePoint" />
            <mxPoint x="383" y="-870" as="targetPoint" />
          </mxGeometry>
        </mxCell>
        <mxCell id="kbRFMsDw6Ko16cHBu1PE-19" value="" style="endArrow=none;html=1;rounded=0;entryX=0.5;entryY=1;entryDx=0;entryDy=0;exitX=0.5;exitY=0;exitDx=0;exitDy=0;" parent="WIyWlLk6GJQsqaUBKTNV-1" source="kbRFMsDw6Ko16cHBu1PE-13" target="kbRFMsDw6Ko16cHBu1PE-12" edge="1">
          <mxGeometry width="50" height="50" relative="1" as="geometry">
            <mxPoint x="333" y="-820" as="sourcePoint" />
            <mxPoint x="383" y="-870" as="targetPoint" />
          </mxGeometry>
        </mxCell>
        <mxCell id="kbRFMsDw6Ko16cHBu1PE-20" value="" style="endArrow=none;html=1;rounded=0;entryX=0.5;entryY=1;entryDx=0;entryDy=0;exitX=0.5;exitY=0;exitDx=0;exitDy=0;" parent="WIyWlLk6GJQsqaUBKTNV-1" source="kbRFMsDw6Ko16cHBu1PE-14" target="kbRFMsDw6Ko16cHBu1PE-11" edge="1">
          <mxGeometry width="50" height="50" relative="1" as="geometry">
            <mxPoint x="333" y="-820" as="sourcePoint" />
            <mxPoint x="383" y="-870" as="targetPoint" />
          </mxGeometry>
        </mxCell>
        <mxCell id="kbRFMsDw6Ko16cHBu1PE-21" value="" style="endArrow=none;html=1;rounded=0;entryX=0.5;entryY=1;entryDx=0;entryDy=0;exitX=0.5;exitY=0;exitDx=0;exitDy=0;" parent="WIyWlLk6GJQsqaUBKTNV-1" source="kbRFMsDw6Ko16cHBu1PE-15" target="kbRFMsDw6Ko16cHBu1PE-13" edge="1">
          <mxGeometry width="50" height="50" relative="1" as="geometry">
            <mxPoint x="333" y="-820" as="sourcePoint" />
            <mxPoint x="383" y="-870" as="targetPoint" />
          </mxGeometry>
        </mxCell>
        <mxCell id="kbRFMsDw6Ko16cHBu1PE-22" value="" style="endArrow=none;html=1;rounded=0;exitX=0.5;exitY=1;exitDx=0;exitDy=0;" parent="WIyWlLk6GJQsqaUBKTNV-1" source="kbRFMsDw6Ko16cHBu1PE-0" target="kbRFMsDw6Ko16cHBu1PE-1" edge="1">
          <mxGeometry width="50" height="50" relative="1" as="geometry">
            <mxPoint x="333" y="-1930" as="sourcePoint" />
            <mxPoint x="383" y="-1980" as="targetPoint" />
          </mxGeometry>
        </mxCell>
        <mxCell id="kbRFMsDw6Ko16cHBu1PE-23" value="" style="endArrow=none;html=1;rounded=0;exitX=0.5;exitY=1;exitDx=0;exitDy=0;entryX=0.5;entryY=0;entryDx=0;entryDy=0;" parent="WIyWlLk6GJQsqaUBKTNV-1" source="kbRFMsDw6Ko16cHBu1PE-1" target="kbRFMsDw6Ko16cHBu1PE-2" edge="1">
          <mxGeometry width="50" height="50" relative="1" as="geometry">
            <mxPoint x="333" y="-1930" as="sourcePoint" />
            <mxPoint x="383" y="-1980" as="targetPoint" />
          </mxGeometry>
        </mxCell>
        <mxCell id="kbRFMsDw6Ko16cHBu1PE-24" value="" style="endArrow=none;html=1;rounded=0;exitX=0.5;exitY=1;exitDx=0;exitDy=0;entryX=0.5;entryY=0;entryDx=0;entryDy=0;" parent="WIyWlLk6GJQsqaUBKTNV-1" source="kbRFMsDw6Ko16cHBu1PE-2" target="kbRFMsDw6Ko16cHBu1PE-3" edge="1">
          <mxGeometry width="50" height="50" relative="1" as="geometry">
            <mxPoint x="333" y="-1930" as="sourcePoint" />
            <mxPoint x="383" y="-1980" as="targetPoint" />
          </mxGeometry>
        </mxCell>
        <mxCell id="kbRFMsDw6Ko16cHBu1PE-25" value="" style="endArrow=none;html=1;rounded=0;entryX=0.5;entryY=1;entryDx=0;entryDy=0;exitX=0.5;exitY=0;exitDx=0;exitDy=0;" parent="WIyWlLk6GJQsqaUBKTNV-1" source="kbRFMsDw6Ko16cHBu1PE-4" target="kbRFMsDw6Ko16cHBu1PE-2" edge="1">
          <mxGeometry width="50" height="50" relative="1" as="geometry">
            <mxPoint x="333" y="-1930" as="sourcePoint" />
            <mxPoint x="383" y="-1980" as="targetPoint" />
          </mxGeometry>
        </mxCell>
        <mxCell id="kbRFMsDw6Ko16cHBu1PE-26" value="" style="endArrow=none;html=1;rounded=0;exitX=0.5;exitY=1;exitDx=0;exitDy=0;entryX=0.5;entryY=0;entryDx=0;entryDy=0;" parent="WIyWlLk6GJQsqaUBKTNV-1" source="kbRFMsDw6Ko16cHBu1PE-4" target="kbRFMsDw6Ko16cHBu1PE-6" edge="1">
          <mxGeometry width="50" height="50" relative="1" as="geometry">
            <mxPoint x="333" y="-1930" as="sourcePoint" />
            <mxPoint x="383" y="-1980" as="targetPoint" />
          </mxGeometry>
        </mxCell>
        <mxCell id="kbRFMsDw6Ko16cHBu1PE-27" value="" style="endArrow=none;html=1;rounded=0;exitX=0.5;exitY=1;exitDx=0;exitDy=0;entryX=0.5;entryY=0;entryDx=0;entryDy=0;" parent="WIyWlLk6GJQsqaUBKTNV-1" source="kbRFMsDw6Ko16cHBu1PE-4" target="kbRFMsDw6Ko16cHBu1PE-5" edge="1">
          <mxGeometry width="50" height="50" relative="1" as="geometry">
            <mxPoint x="333" y="-1930" as="sourcePoint" />
            <mxPoint x="383" y="-1980" as="targetPoint" />
          </mxGeometry>
        </mxCell>
        <mxCell id="kbRFMsDw6Ko16cHBu1PE-28" value="" style="endArrow=none;html=1;rounded=0;exitX=0.5;exitY=1;exitDx=0;exitDy=0;entryX=0.5;entryY=0;entryDx=0;entryDy=0;" parent="WIyWlLk6GJQsqaUBKTNV-1" source="kbRFMsDw6Ko16cHBu1PE-5" target="kbRFMsDw6Ko16cHBu1PE-7" edge="1">
          <mxGeometry width="50" height="50" relative="1" as="geometry">
            <mxPoint x="333" y="-1930" as="sourcePoint" />
            <mxPoint x="383" y="-1980" as="targetPoint" />
          </mxGeometry>
        </mxCell>
        <mxCell id="kbRFMsDw6Ko16cHBu1PE-29" value="" style="endArrow=none;html=1;rounded=0;exitX=0.5;exitY=1;exitDx=0;exitDy=0;entryX=0.5;entryY=0;entryDx=0;entryDy=0;" parent="WIyWlLk6GJQsqaUBKTNV-1" source="kbRFMsDw6Ko16cHBu1PE-6" target="kbRFMsDw6Ko16cHBu1PE-7" edge="1">
          <mxGeometry width="50" height="50" relative="1" as="geometry">
            <mxPoint x="333" y="-1930" as="sourcePoint" />
            <mxPoint x="383" y="-1980" as="targetPoint" />
          </mxGeometry>
        </mxCell>
        <mxCell id="kbRFMsDw6Ko16cHBu1PE-30" value="Chapter 2" style="rounded=0;whiteSpace=wrap;html=1;" parent="WIyWlLk6GJQsqaUBKTNV-1" vertex="1">
          <mxGeometry x="353" y="-640" width="120" height="40" as="geometry" />
        </mxCell>
        <mxCell id="kbRFMsDw6Ko16cHBu1PE-31" value="1 Tag vergeht und man versucht heraus zu finden wie man die person im krankenhaus besuchen kann" style="rounded=0;whiteSpace=wrap;html=1;" parent="WIyWlLk6GJQsqaUBKTNV-1" vertex="1">
          <mxGeometry x="353" y="-560" width="120" height="100" as="geometry" />
        </mxCell>
        <mxCell id="kbRFMsDw6Ko16cHBu1PE-32" value="Man geht ins Musikzimmer zurück vielleicht findet man andere Mitglieder des Musikclubs" style="rounded=0;whiteSpace=wrap;html=1;" parent="WIyWlLk6GJQsqaUBKTNV-1" vertex="1">
          <mxGeometry x="353" y="-430" width="120" height="80" as="geometry" />
        </mxCell>
        <mxCell id="kbRFMsDw6Ko16cHBu1PE-33" value="MINISPIEL: Suche im Musikzimmer" style="rounded=0;whiteSpace=wrap;html=1;" parent="WIyWlLk6GJQsqaUBKTNV-1" vertex="1">
          <mxGeometry x="353" y="-320" width="120" height="40" as="geometry" />
        </mxCell>
        <mxCell id="kbRFMsDw6Ko16cHBu1PE-34" value="Man findet eine Schülerkarte der vermeindlichen Schülerin" style="rounded=0;whiteSpace=wrap;html=1;" parent="WIyWlLk6GJQsqaUBKTNV-1" vertex="1">
          <mxGeometry x="353" y="-240" width="120" height="60" as="geometry" />
        </mxCell>
        <mxCell id="kbRFMsDw6Ko16cHBu1PE-35" value="Man geht zum Lehrer und fragt ob man die Schülerkarte zu ihr bringen kann" style="rounded=0;whiteSpace=wrap;html=1;" parent="WIyWlLk6GJQsqaUBKTNV-1" vertex="1">
          <mxGeometry x="473" y="-130" width="120" height="60" as="geometry" />
        </mxCell>
        <mxCell id="kbRFMsDw6Ko16cHBu1PE-36" value="Man bringt es zu einem Lehrer der es zu den anderen Fund sachen legt" style="rounded=0;whiteSpace=wrap;html=1;" parent="WIyWlLk6GJQsqaUBKTNV-1" vertex="1">
          <mxGeometry x="233" y="-130" width="120" height="60" as="geometry" />
        </mxCell>
        <mxCell id="kbRFMsDw6Ko16cHBu1PE-37" value="Ende" style="rounded=0;whiteSpace=wrap;html=1;" parent="WIyWlLk6GJQsqaUBKTNV-1" vertex="1">
          <mxGeometry x="233" y="-40" width="120" height="40" as="geometry" />
        </mxCell>
        <mxCell id="kbRFMsDw6Ko16cHBu1PE-38" value="Also begibt man sich auf den Weg die Schülerkarte zu ihr nach hause zu bringen" style="rounded=0;whiteSpace=wrap;html=1;" parent="WIyWlLk6GJQsqaUBKTNV-1" vertex="1">
          <mxGeometry x="473" y="-20" width="120" height="80" as="geometry" />
        </mxCell>
        <mxCell id="kbRFMsDw6Ko16cHBu1PE-39" value="Man geht zu ihr nach hause eltern öffnen Tür du gibst ihnen die karte sagst dass du ein schulfreund von ihr bist und frägst wie es ihr geht und wo sie ist. Die Eltern fragen dann nach ob du derjenige bist der ihr kürzlich in der schule geholfen hat. du sagst ja und sagst noch dass es keine große sache war" style="rounded=0;whiteSpace=wrap;html=1;" parent="WIyWlLk6GJQsqaUBKTNV-1" vertex="1">
          <mxGeometry x="473" y="110" width="120" height="220" as="geometry" />
        </mxCell>
        <mxCell id="kbRFMsDw6Ko16cHBu1PE-40" value="Die Eltern sagen dir dass es ihr nicht gut ginge und sie im krankenhaus liegt und fragen ob du sie besuchen willst wenn sie wieder zuhause ist" style="rounded=0;whiteSpace=wrap;html=1;" parent="WIyWlLk6GJQsqaUBKTNV-1" vertex="1">
          <mxGeometry x="473" y="369" width="120" height="120" as="geometry" />
        </mxCell>
        <mxCell id="kbRFMsDw6Ko16cHBu1PE-41" value="Du stimmst zu" style="rounded=0;whiteSpace=wrap;html=1;" parent="WIyWlLk6GJQsqaUBKTNV-1" vertex="1">
          <mxGeometry x="473" y="520" width="120" height="20" as="geometry" />
        </mxCell>
        <mxCell id="kbRFMsDw6Ko16cHBu1PE-42" value="Die Eltern sagen dir dass du sie Morgen besuchen kannst&amp;nbsp;" style="rounded=0;whiteSpace=wrap;html=1;" parent="WIyWlLk6GJQsqaUBKTNV-1" vertex="1">
          <mxGeometry x="473" y="570" width="120" height="60" as="geometry" />
        </mxCell>
        <mxCell id="kbRFMsDw6Ko16cHBu1PE-43" value="Protagonist macht sich auf den Weg&amp;nbsp;" style="rounded=0;whiteSpace=wrap;html=1;" parent="WIyWlLk6GJQsqaUBKTNV-1" vertex="1">
          <mxGeometry x="338" y="2160" width="120" height="60" as="geometry" />
        </mxCell>
        <mxCell id="kbRFMsDw6Ko16cHBu1PE-44" value="Protagonist sieht Sara in ihrem Konzertkleid" style="rounded=0;whiteSpace=wrap;html=1;" parent="WIyWlLk6GJQsqaUBKTNV-1" vertex="1">
          <mxGeometry x="338" y="2260" width="120" height="60" as="geometry" />
        </mxCell>
        <mxCell id="kbRFMsDw6Ko16cHBu1PE-45" value="Mit dem Üben anfangen" style="rounded=0;whiteSpace=wrap;html=1;" parent="WIyWlLk6GJQsqaUBKTNV-1" vertex="1">
          <mxGeometry x="338" y="2490" width="120" height="60" as="geometry" />
        </mxCell>
        <mxCell id="kbRFMsDw6Ko16cHBu1PE-46" value="Kompliment machen" style="rounded=0;whiteSpace=wrap;html=1;" parent="WIyWlLk6GJQsqaUBKTNV-1" vertex="1">
          <mxGeometry x="458" y="2380" width="120" height="60" as="geometry" />
        </mxCell>
        <mxCell id="kbRFMsDw6Ko16cHBu1PE-47" value="" style="endArrow=none;html=1;rounded=0;exitX=0.5;exitY=1;exitDx=0;exitDy=0;entryX=0.5;entryY=0;entryDx=0;entryDy=0;" parent="WIyWlLk6GJQsqaUBKTNV-1" source="kbRFMsDw6Ko16cHBu1PE-44" target="kbRFMsDw6Ko16cHBu1PE-46" edge="1">
          <mxGeometry width="50" height="50" relative="1" as="geometry">
            <mxPoint x="370" y="2390" as="sourcePoint" />
            <mxPoint x="420" y="2340" as="targetPoint" />
          </mxGeometry>
        </mxCell>
        <mxCell id="kbRFMsDw6Ko16cHBu1PE-48" value="" style="endArrow=none;html=1;rounded=0;exitX=0.5;exitY=0;exitDx=0;exitDy=0;" parent="WIyWlLk6GJQsqaUBKTNV-1" source="kbRFMsDw6Ko16cHBu1PE-45" edge="1">
          <mxGeometry width="50" height="50" relative="1" as="geometry">
            <mxPoint x="170" y="2470" as="sourcePoint" />
            <mxPoint x="400" y="2320" as="targetPoint" />
          </mxGeometry>
        </mxCell>
        <mxCell id="kbRFMsDw6Ko16cHBu1PE-49" value="" style="endArrow=none;html=1;rounded=0;entryX=0.5;entryY=1;entryDx=0;entryDy=0;exitX=0.5;exitY=0;exitDx=0;exitDy=0;" parent="WIyWlLk6GJQsqaUBKTNV-1" source="kbRFMsDw6Ko16cHBu1PE-45" target="kbRFMsDw6Ko16cHBu1PE-46" edge="1">
          <mxGeometry width="50" height="50" relative="1" as="geometry">
            <mxPoint x="530" y="2540" as="sourcePoint" />
            <mxPoint x="580" y="2490" as="targetPoint" />
          </mxGeometry>
        </mxCell>
        <mxCell id="kbRFMsDw6Ko16cHBu1PE-50" value="Nach einer Zeit geht Sara kurz aufs Klo und ihre Mutter kommt rein und bringt was zum trinken mit" style="rounded=0;whiteSpace=wrap;html=1;" parent="WIyWlLk6GJQsqaUBKTNV-1" vertex="1">
          <mxGeometry x="338" y="2580" width="120" height="80" as="geometry" />
        </mxCell>
        <mxCell id="kbRFMsDw6Ko16cHBu1PE-51" value="Die Mutter fängt an sich bei dem Protagonist zu bedanken weil er mit Sara sich angefreundet hat" style="rounded=0;whiteSpace=wrap;html=1;" parent="WIyWlLk6GJQsqaUBKTNV-1" vertex="1">
          <mxGeometry x="338" y="2690" width="120" height="100" as="geometry" />
        </mxCell>
        <mxCell id="kbRFMsDw6Ko16cHBu1PE-52" value="Sara kommt von der Toilette zurück und der Protagonist sagt dass die Mutter uns Trinken gebracht hat" style="rounded=0;whiteSpace=wrap;html=1;" parent="WIyWlLk6GJQsqaUBKTNV-1" vertex="1">
          <mxGeometry x="338" y="2820" width="120" height="90" as="geometry" />
        </mxCell>
        <mxCell id="kbRFMsDw6Ko16cHBu1PE-53" value="Sara frägt über was ihr euch unterhalten habt" style="rounded=0;whiteSpace=wrap;html=1;" parent="WIyWlLk6GJQsqaUBKTNV-1" vertex="1">
          <mxGeometry x="338" y="2950" width="120" height="60" as="geometry" />
        </mxCell>
        <mxCell id="kbRFMsDw6Ko16cHBu1PE-54" value="[Wahrheit] Über deine Krankheit" style="rounded=0;whiteSpace=wrap;html=1;" parent="WIyWlLk6GJQsqaUBKTNV-1" vertex="1">
          <mxGeometry x="458" y="3060" width="120" height="60" as="geometry" />
        </mxCell>
        <mxCell id="kbRFMsDw6Ko16cHBu1PE-55" value="[Lügen] Über dein Konzertkleid" style="rounded=0;whiteSpace=wrap;html=1;" parent="WIyWlLk6GJQsqaUBKTNV-1" vertex="1">
          <mxGeometry x="218" y="3060" width="120" height="60" as="geometry" />
        </mxCell>
        <mxCell id="kbRFMsDw6Ko16cHBu1PE-57" value="Der Protagonist lügt sie an und sagt sie haben über ihr Konzertkleid geredet" style="rounded=0;whiteSpace=wrap;html=1;" parent="WIyWlLk6GJQsqaUBKTNV-1" vertex="1">
          <mxGeometry x="218" y="3170" width="120" height="80" as="geometry" />
        </mxCell>
        <mxCell id="kbRFMsDw6Ko16cHBu1PE-58" value="Sara wirkt verwirrt und frägt wieso" style="rounded=0;whiteSpace=wrap;html=1;" parent="WIyWlLk6GJQsqaUBKTNV-1" vertex="1">
          <mxGeometry x="218" y="3290" width="120" height="60" as="geometry" />
        </mxCell>
        <mxCell id="kbRFMsDw6Ko16cHBu1PE-59" value="Weil ich derselben Meinung bin" style="rounded=0;whiteSpace=wrap;html=1;" parent="WIyWlLk6GJQsqaUBKTNV-1" vertex="1">
          <mxGeometry x="98" y="3390" width="120" height="60" as="geometry" />
        </mxCell>
        <mxCell id="kbRFMsDw6Ko16cHBu1PE-60" value="Du siehst wunderschön darin aus" style="rounded=0;whiteSpace=wrap;html=1;" parent="WIyWlLk6GJQsqaUBKTNV-1" vertex="1">
          <mxGeometry x="218" y="3390" width="120" height="60" as="geometry" />
        </mxCell>
        <mxCell id="kbRFMsDw6Ko16cHBu1PE-61" value="Jedenfalls lass uns weiter üben" style="rounded=0;whiteSpace=wrap;html=1;" parent="WIyWlLk6GJQsqaUBKTNV-1" vertex="1">
          <mxGeometry x="338" y="3390" width="120" height="60" as="geometry" />
        </mxCell>
        <mxCell id="kbRFMsDw6Ko16cHBu1PE-62" value="Sie üben weiter und Sara wirkt sehr glücklich" style="rounded=0;whiteSpace=wrap;html=1;" parent="WIyWlLk6GJQsqaUBKTNV-1" vertex="1">
          <mxGeometry x="218" y="3490" width="120" height="60" as="geometry" />
        </mxCell>
        <mxCell id="kbRFMsDw6Ko16cHBu1PE-63" value="Sie üben weiter und Sara wirkt leicht wütend" style="rounded=0;whiteSpace=wrap;html=1;" parent="WIyWlLk6GJQsqaUBKTNV-1" vertex="1">
          <mxGeometry x="458" y="3490" width="120" height="60" as="geometry" />
        </mxCell>
        <mxCell id="kbRFMsDw6Ko16cHBu1PE-64" value="Der Protagonist erzählt ihr über was sie wirklich geredet haben" style="rounded=0;whiteSpace=wrap;html=1;" parent="WIyWlLk6GJQsqaUBKTNV-1" vertex="1">
          <mxGeometry x="458" y="3170" width="120" height="60" as="geometry" />
        </mxCell>
        <mxCell id="kbRFMsDw6Ko16cHBu1PE-65" value="Sara wirkt wütend weil sie denkt ihre Mutter hat es dramatischer dargestellt als das es ist" style="rounded=0;whiteSpace=wrap;html=1;" parent="WIyWlLk6GJQsqaUBKTNV-1" vertex="1">
          <mxGeometry x="458" y="3270" width="120" height="100" as="geometry" />
        </mxCell>
        <mxCell id="kbRFMsDw6Ko16cHBu1PE-66" value="Als sie mit dem Üben fertig waren verabschieden sie sich und der Protagonist sagt er kommt dann zur Generalprobe" style="rounded=0;whiteSpace=wrap;html=1;" parent="WIyWlLk6GJQsqaUBKTNV-1" vertex="1">
          <mxGeometry x="338" y="3590" width="120" height="130" as="geometry" />
        </mxCell>
        <mxCell id="kbRFMsDw6Ko16cHBu1PE-67" value="Der Protagonist kam rechtzeitig zur Probe als sie&amp;nbsp;gerade anfangen wollten" style="rounded=0;whiteSpace=wrap;html=1;" parent="WIyWlLk6GJQsqaUBKTNV-1" vertex="1">
          <mxGeometry x="338" y="3800" width="120" height="80" as="geometry" />
        </mxCell>
        <mxCell id="enjt5F0pp0Ij3zV4LUNq-0" value="Sie fangen an zu spielen als dann der Protagonist etwas bemerkt" style="whiteSpace=wrap;html=1;" parent="WIyWlLk6GJQsqaUBKTNV-1" vertex="1">
          <mxGeometry x="338" y="3920" width="120" height="60" as="geometry" />
        </mxCell>
        <mxCell id="enjt5F0pp0Ij3zV4LUNq-1" value="Sara wird immer langsamer beim spielen" style="whiteSpace=wrap;html=1;" parent="WIyWlLk6GJQsqaUBKTNV-1" vertex="1">
          <mxGeometry x="338" y="4020" width="120" height="60" as="geometry" />
        </mxCell>
        <mxCell id="enjt5F0pp0Ij3zV4LUNq-2" value="Sara stürzt zu Boden und der Protagonist eilt nach vorne wo er Sara Mutter trifft" style="whiteSpace=wrap;html=1;" parent="WIyWlLk6GJQsqaUBKTNV-1" vertex="1">
          <mxGeometry x="338" y="4120" width="120" height="60" as="geometry" />
        </mxCell>
        <mxCell id="enjt5F0pp0Ij3zV4LUNq-4" value="Ein Krankenwagen holt Sara ab als plötzlich Saras Mutter sich über Sara Verhalten beschwert" style="whiteSpace=wrap;html=1;" parent="WIyWlLk6GJQsqaUBKTNV-1" vertex="1">
          <mxGeometry x="338" y="4220" width="120" height="100" as="geometry" />
        </mxCell>
        <mxCell id="enjt5F0pp0Ij3zV4LUNq-5" value="Man stimmt der Mutter zu" style="whiteSpace=wrap;html=1;" parent="WIyWlLk6GJQsqaUBKTNV-1" vertex="1">
          <mxGeometry x="218" y="4360" width="120" height="60" as="geometry" />
        </mxCell>
        <mxCell id="enjt5F0pp0Ij3zV4LUNq-6" value="Man spricht für Sara" style="whiteSpace=wrap;html=1;" parent="WIyWlLk6GJQsqaUBKTNV-1" vertex="1">
          <mxGeometry x="458" y="4360" width="120" height="60" as="geometry" />
        </mxCell>
        <mxCell id="shjoMovq4jiA_BYdKFy2-1" value="Nach dem kurzen zwischen Gespräch wacht Sara kurz auf" style="rounded=0;whiteSpace=wrap;html=1;" parent="WIyWlLk6GJQsqaUBKTNV-1" vertex="1">
          <mxGeometry x="338" y="4460" width="120" height="60" as="geometry" />
        </mxCell>
        <mxCell id="shjoMovq4jiA_BYdKFy2-2" value="Der Notarzt kommt und bringt Sara ins Krankenhaus" style="rounded=0;whiteSpace=wrap;html=1;" parent="WIyWlLk6GJQsqaUBKTNV-1" vertex="1">
          <mxGeometry x="338" y="4560" width="120" height="60" as="geometry" />
        </mxCell>
        <mxCell id="shjoMovq4jiA_BYdKFy2-3" value="Nach ein paar Tagen möchte der Protagonist Sara im Krankenhaus besuchen und sie mit ihrer Krankheit konfrontieren" style="rounded=0;whiteSpace=wrap;html=1;" parent="WIyWlLk6GJQsqaUBKTNV-1" vertex="1">
          <mxGeometry x="338" y="4730" width="120" height="130" as="geometry" />
        </mxCell>
        <mxCell id="shjoMovq4jiA_BYdKFy2-4" value="Der Protagonist ist in Saras Krankenhauszimmer angekommen und frägt sie ob das Konzert für sie gelaufen ist" style="rounded=0;whiteSpace=wrap;html=1;" parent="WIyWlLk6GJQsqaUBKTNV-1" vertex="1">
          <mxGeometry x="338" y="4920" width="120" height="120" as="geometry" />
        </mxCell>
        <mxCell id="shjoMovq4jiA_BYdKFy2-5" value="Sara meint dass es nichts großes sein und aufjedenfall auftreten wird" style="rounded=0;whiteSpace=wrap;html=1;" parent="WIyWlLk6GJQsqaUBKTNV-1" vertex="1">
          <mxGeometry x="338" y="5100" width="120" height="60" as="geometry" />
        </mxCell>
        <mxCell id="shjoMovq4jiA_BYdKFy2-6" value="Der Protagonist spricht dann das an was die Mutter gesagt hat" style="rounded=0;whiteSpace=wrap;html=1;" parent="WIyWlLk6GJQsqaUBKTNV-1" vertex="1">
          <mxGeometry x="338" y="5201" width="120" height="69" as="geometry" />
        </mxCell>
        <mxCell id="shjoMovq4jiA_BYdKFy2-7" value="Sara helfen" style="rounded=0;whiteSpace=wrap;html=1;" parent="WIyWlLk6GJQsqaUBKTNV-1" vertex="1">
          <mxGeometry x="218" y="5330" width="120" height="60" as="geometry" />
        </mxCell>
        <mxCell id="shjoMovq4jiA_BYdKFy2-8" value="Sara nicht helfen" style="rounded=0;whiteSpace=wrap;html=1;" parent="WIyWlLk6GJQsqaUBKTNV-1" vertex="1">
          <mxGeometry x="458" y="5330" width="120" height="60" as="geometry" />
        </mxCell>
        <mxCell id="shjoMovq4jiA_BYdKFy2-9" value="Die Lage eskaliert da sich Sara verraten fühlt&amp;nbsp;" style="rounded=0;whiteSpace=wrap;html=1;" parent="WIyWlLk6GJQsqaUBKTNV-1" vertex="1">
          <mxGeometry x="458" y="5460" width="120" height="60" as="geometry" />
        </mxCell>
        <mxCell id="shjoMovq4jiA_BYdKFy2-10" value="Sara freut sich, während der Protagonist ihr zuspricht" style="rounded=0;whiteSpace=wrap;html=1;" parent="WIyWlLk6GJQsqaUBKTNV-1" vertex="1">
          <mxGeometry x="218" y="5460" width="120" height="80" as="geometry" />
        </mxCell>
        <mxCell id="shjoMovq4jiA_BYdKFy2-11" value="Sara fordert auf den Protagonisten zu gehen" style="rounded=0;whiteSpace=wrap;html=1;" parent="WIyWlLk6GJQsqaUBKTNV-1" vertex="1">
          <mxGeometry x="458" y="5560" width="120" height="60" as="geometry" />
        </mxCell>
        <mxCell id="shjoMovq4jiA_BYdKFy2-12" value="Der Große Tag ist gekommen und der Protagonist macht sich auf den Weg zum Konzert" style="rounded=0;whiteSpace=wrap;html=1;" parent="WIyWlLk6GJQsqaUBKTNV-1" vertex="1">
          <mxGeometry x="338" y="5730" width="120" height="90" as="geometry" />
        </mxCell>
        <mxCell id="shjoMovq4jiA_BYdKFy2-13" value="Der Protagonist verlässt das Krankenhaus da es schon spät ist" style="rounded=0;whiteSpace=wrap;html=1;" parent="WIyWlLk6GJQsqaUBKTNV-1" vertex="1">
          <mxGeometry x="218" y="5590" width="120" height="80" as="geometry" />
        </mxCell>
        <mxCell id="shjoMovq4jiA_BYdKFy2-14" value="Sara fängt an zu spielen alles läuft gut und Sara kann das Konzert ohne Vorfälle zu ende bringen und die Zuschauer fanden es auch super&amp;nbsp;" style="rounded=0;whiteSpace=wrap;html=1;" parent="WIyWlLk6GJQsqaUBKTNV-1" vertex="1">
          <mxGeometry x="368" y="5945" width="120" height="120" as="geometry" />
        </mxCell>
        <mxCell id="shjoMovq4jiA_BYdKFy2-16" value="Der Protagonist entschuldigt sich und das Verhältnis ist wieder wie vorher" style="rounded=0;whiteSpace=wrap;html=1;" parent="WIyWlLk6GJQsqaUBKTNV-1" vertex="1">
          <mxGeometry x="578" y="5975" width="120" height="60" as="geometry" />
        </mxCell>
        <mxCell id="shjoMovq4jiA_BYdKFy2-18" value="falls Streit im Krankenhaus" style="text;html=1;align=center;verticalAlign=middle;resizable=0;points=[];autosize=1;strokeColor=none;fillColor=none;" parent="WIyWlLk6GJQsqaUBKTNV-1" vertex="1">
          <mxGeometry x="348" y="5975" width="170" height="30" as="geometry" />
        </mxCell>
        <mxCell id="shjoMovq4jiA_BYdKFy2-21" value="" style="endArrow=classic;html=1;rounded=0;exitX=1;exitY=0.5;exitDx=0;exitDy=0;entryX=0;entryY=0.5;entryDx=0;entryDy=0;" parent="WIyWlLk6GJQsqaUBKTNV-1" source="shjoMovq4jiA_BYdKFy2-14" target="shjoMovq4jiA_BYdKFy2-16" edge="1">
          <mxGeometry width="50" height="50" relative="1" as="geometry">
            <mxPoint x="350" y="6100" as="sourcePoint" />
            <mxPoint x="400" y="6050" as="targetPoint" />
          </mxGeometry>
        </mxCell>
        <mxCell id="shjoMovq4jiA_BYdKFy2-22" value="Gutes Ende" style="text;html=1;strokeColor=none;fillColor=none;align=center;verticalAlign=middle;whiteSpace=wrap;rounded=0;" parent="WIyWlLk6GJQsqaUBKTNV-1" vertex="1">
          <mxGeometry x="368" y="5880" width="132" height="30" as="geometry" />
        </mxCell>
        <mxCell id="shjoMovq4jiA_BYdKFy2-24" value="" style="rounded=0;whiteSpace=wrap;html=1;" parent="WIyWlLk6GJQsqaUBKTNV-1" vertex="1">
          <mxGeometry x="324" y="6270" width="220" height="310" as="geometry" />
        </mxCell>
        <mxCell id="shjoMovq4jiA_BYdKFy2-25" value="Schlechtes Ende" style="text;html=1;strokeColor=none;fillColor=none;align=center;verticalAlign=middle;whiteSpace=wrap;rounded=0;" parent="WIyWlLk6GJQsqaUBKTNV-1" vertex="1">
          <mxGeometry x="368" y="6220" width="130" height="30" as="geometry" />
        </mxCell>
        <mxCell id="shjoMovq4jiA_BYdKFy2-26" value="Das Konzert verläuft Anfangs gut aber dem Protagonist hat so ein Unwohles Gefühl als Sara ihn anschaute und etwas sagte&amp;nbsp;" style="rounded=0;whiteSpace=wrap;html=1;" parent="WIyWlLk6GJQsqaUBKTNV-1" vertex="1">
          <mxGeometry x="373" y="6290" width="120" height="110" as="geometry" />
        </mxCell>
        <mxCell id="shjoMovq4jiA_BYdKFy2-27" value="Sara spielt das Lied noch mit letzter Kraft fertig und kippt dann um aber selbst der Notarzt kann nichts mehr tun" style="rounded=0;whiteSpace=wrap;html=1;" parent="WIyWlLk6GJQsqaUBKTNV-1" vertex="1">
          <mxGeometry x="373" y="6439" width="120" height="91" as="geometry" />
        </mxCell>
        <mxCell id="shjoMovq4jiA_BYdKFy2-28" value="Sara und der Protagonist haben sich vorgenommen nun mehr Zeit miteinander zu verbringen" style="rounded=0;whiteSpace=wrap;html=1;" parent="WIyWlLk6GJQsqaUBKTNV-1" vertex="1">
          <mxGeometry x="368" y="6100" width="120" height="110" as="geometry" />
        </mxCell>
      </root>
    </mxGraphModel>
  </diagram>
</mxfile>
